<?xml version="1.0" encoding="utf-8"?>
<!-- Generator: Adobe Illustrator 14.0.0, SVG Export Plug-In . SVG Version: 6.00 Build 43363)  -->
<!DOCTYPE svg PUBLIC "-//W3C//DTD SVG 1.1//EN" "http://www.w3.org/Graphics/SVG/1.1/DTD/svg11.dtd">
				<svg version="1.1" id="Layer_1" xmlns="http://www.w3.org/2000/svg" xmlns:xlink="http://www.w3.org/1999/xlink" x="0px" y="0px"
					 width="1600px" height="1200px" viewBox="0 0 1600 1200" enable-background="new 0 0 1600 1200" xml:space="preserve">
				
					<path fill="none" stroke="#C33" stroke-width="3" d="
						M-10, 750 L160, 720 L310, 740 L460, 650 L610, 740 L760, 550 L910, 500 L1060, 300 L1210, 350 L1360, 250 L1510, 100 L1660, 50
					"/>

					<circle fill="#C33" cx="-10" cy="750" r="3.5"/>
					<circle fill="#C33" cx="160" cy="720" r="3.5"/>
					<circle fill="#C33" cx="310" cy="740" r="3.5"/>
					<circle fill="#C33" cx="460" cy="650" r="3.5"/>
					<circle fill="#C33" cx="610" cy="740" r="3.5"/>
					<circle fill="#C33" cx="760" cy="550" r="3.5"/>
					<circle fill="#C33" cx="910" cy="500" r="3.5"/>
					<circle fill="#C33" cx="1060" cy="300" r="3.5"/>
					<circle fill="#C33" cx="1210" cy="350" r="3.5"/>
					<circle fill="#C33" cx="1360" cy="250" r="3.5"/>
					<circle fill="#C33" cx="1510" cy="100" r="3.5"/>
					<circle fill="#C33" cx="1660" cy="50" r="3.5"/>
				</svg>