<?xml version="1.0" encoding="utf-8"?>
<!-- Generator: Adobe Illustrator 14.0.0, SVG Export Plug-In . SVG Version: 6.00 Build 43363)  -->
<!DOCTYPE svg PUBLIC "-//W3C//DTD SVG 1.1//EN" "http://www.w3.org/Graphics/SVG/1.1/DTD/svg11.dtd">
<svg version="1.1" id="Layer_1" xmlns="http://www.w3.org/2000/svg" xmlns:xlink="http://www.w3.org/1999/xlink" x="0px" y="0px"
	 width="15px" height="15px" viewBox="0 0 15 15" enable-background="new 0 0 15 15" xml:space="preserve">
<g>
	<polygon fill="#010101" points="4.182,13.166 4.182,13.35 4.182,13.604 10.818,13.604 10.818,13.35 10.818,13.166 10.818,12.91 
		4.182,12.91 	"/>
	<path fill="#010101" d="M13.559,1.396H1.516c-0.45,0-0.816,0.326-0.816,0.776v8.777c0,0.449,0.366,0.918,0.816,0.918h3.609
		c0.247,0.14,0.414,0.402,0.414,0.705c0,0.003-0.001,0.007-0.001,0.009h3.999c0-0.002-0.001-0.006-0.001-0.009
		c0-0.303,0.167-0.565,0.413-0.705h3.609c0.449,0,0.742-0.469,0.742-0.918V2.172C14.301,1.722,14.008,1.396,13.559,1.396z
		 M13.252,10.508h-0.514c-0.171,0-0.309-0.102-0.309-0.272c0-0.17,0.138-0.271,0.309-0.271h0.514c0.17,0,0.308,0.102,0.308,0.271
		C13.56,10.406,13.422,10.508,13.252,10.508z M1.379,9.011V2.075h12.179l0.001,6.936H1.379z"/>
</g>
</svg>
