<?xml version="1.0" encoding="utf-8"?>
<!-- Generator: Adobe Illustrator 14.0.0, SVG Export Plug-In . SVG Version: 6.00 Build 43363)  -->
<!DOCTYPE svg PUBLIC "-//W3C//DTD SVG 1.1//EN" "http://www.w3.org/Graphics/SVG/1.1/DTD/svg11.dtd">
<svg version="1.1" id="Layer_1" xmlns="http://www.w3.org/2000/svg" xmlns:xlink="http://www.w3.org/1999/xlink" x="0px" y="0px"
	 width="16px" height="16px" viewBox="0 0 16 16" enable-background="new 0 0 16 16" xml:space="preserve">
<g>
	<g>
		<g>
			<path fill="#CC6633" d="M11.829,11.249c0.292,0.293,0.53,0.193,0.53-0.219V5.812c0-0.412-0.338-0.75-0.75-0.75H6.391
				c-0.412,0-0.512,0.239-0.22,0.531L11.829,11.249z"/>
		</g>
		<path fill="#CC6633" d="M7.781,12.36c-0.395,0.396-1.039,0.396-1.436,0l-1.286-1.287c-0.397-0.396-0.397-1.039,0-1.437l3.921-3.92
			c0.395-0.396,1.037-0.396,1.437,0l1.284,1.287c0.398,0.396,0.398,1.04,0,1.437L7.781,12.36z"/>
	</g>
	<path fill="#CC6633" d="M9.078,12.603v1.469c0,0.236-0.191,0.429-0.428,0.429H7.18l-0.023,0.022L7.134,14.5H3.35
		c-0.236,0-0.428-0.19-0.428-0.429v-3.785l-0.023-0.023l0.023-0.021v-1.47c0-0.236,0.192-0.429,0.428-0.429h1.47l1.5-1.5H3.35
		c-1.064,0-1.928,0.863-1.928,1.929v5.3C1.422,15.136,2.285,16,3.35,16h5.3c1.063,0,1.928-0.863,1.928-1.929v-2.971L9.078,12.603z"
		/>
</g>
</svg>
