<?xml version="1.0" encoding="utf-8"?>
<!-- Generator: Adobe Illustrator 14.0.0, SVG Export Plug-In . SVG Version: 6.00 Build 43363)  -->
<!DOCTYPE svg PUBLIC "-//W3C//DTD SVG 1.1//EN" "http://www.w3.org/Graphics/SVG/1.1/DTD/svg11.dtd">
<svg version="1.1" id="Layer_1" xmlns="http://www.w3.org/2000/svg" xmlns:xlink="http://www.w3.org/1999/xlink" x="0px" y="0px"
	 width="45px" height="45px" viewBox="0 0 45 45" enable-background="new 0 0 45 45" xml:space="preserve">
<g>
	<path fill="#FFFFFF" d="M15.629,28.032h13.74l-4.521-4.63l-0.854,0.861c-0.37,0.37-0.9,0.582-1.459,0.582
		c-0.002,0-0.006-0.002-0.01-0.002c-0.559-0.002-1.092-0.218-1.461-0.594l-0.87-0.881L15.629,28.032L15.629,28.032z M14.756,17.868
		v9.262l4.555-4.651L14.756,17.868L14.756,17.868z M25.732,22.513l4.513,4.617v-9.159L25.732,22.513L25.732,22.513z M15.633,16.969
		l6.325,6.403c0.137,0.14,0.345,0.219,0.571,0.22c0.001,0,0.003,0,0.004,0c0.224,0,0.436-0.078,0.568-0.213l6.366-6.41H15.633
		L15.633,16.969z"/>
</g>
</svg>
