<?xml version="1.0" encoding="utf-8"?>
<!-- Generator: Adobe Illustrator 14.0.0, SVG Export Plug-In . SVG Version: 6.00 Build 43363)  -->
<!DOCTYPE svg PUBLIC "-//W3C//DTD SVG 1.1//EN" "http://www.w3.org/Graphics/SVG/1.1/DTD/svg11.dtd">
<svg version="1.1" id="Layer_1" xmlns="http://www.w3.org/2000/svg" xmlns:xlink="http://www.w3.org/1999/xlink" x="0px" y="0px"
	 width="48px" height="48px" viewBox="0 0 48 48" enable-background="new 0 0 48 48" xml:space="preserve">
<g>
	<g>
		<path d="M22.583,44.019c0.289-1.811,0.232-8.261,0.207-10.292l-0.027-2.117l-1.83,1.064c-0.157,0.09-1.538,0.959-1.538,3.293
			c0,0.336-0.021,5.76-0.021,6.503c0,0.22-0.179,0.45-0.443,0.657c0.16-0.346,0.259-0.74,0.259-1.197
			c0-1.382-0.029-4.938-0.029-4.938l-0.013-1.445l-1.428,0.236c-0.011,0.003-1.033,0.17-2.469,0.17c-2.734,0-3.829-1.307-4.53-2.8
			c0.61,0.697,1.296,1.304,2.199,1.585c0.718,0.223,1.537,0.34,2.372,0.34c1.39,0,2.683-0.314,3.546-0.863l0.506-0.32l0.062-0.598
			c0.087-0.857,0.738-1.727,1.387-2.258c0.555-0.145,2.62-0.39,4.835-0.39c2.045,0,2.973,0.224,3.177,0.341
			c1.231,0.764,1.825,1.566,1.825,5.563c0,2.398-0.021,3.541-0.033,4.271c-0.01,0.497-0.016,0.811-0.01,1.188
			c0.006,0.454,0.119,0.854,0.294,1.205c-0.489-0.407-0.512-0.865-0.5-1.033l0.006-0.139l-0.079-5.331
			c0.041-0.682,0.048-2.574-0.83-3.505c-0.354-0.373-0.824-0.579-1.322-0.579h-1.236v9.96c0,0.541,0.084,1.008,0.213,1.41
			c-0.685-0.705-0.648-2.697-0.623-4.154l0.008-0.417c0.027-1.847-0.016-5.767-0.018-5.933l-0.014-1.248l-3.287,0.067l0.045,1.255
			c0.149,4.101,0.076,9.051-0.303,9.898C22.847,43.671,22.723,43.854,22.583,44.019L22.583,44.019z"/>
		<path d="M7.204,28.861c-0.21,0-0.431,0.021-0.663,0.063c-0.758,0.14-0.606,0.632,0.049,1.05c1.07,0.681,2.074,1.53,2.85,3.342
			c0.596,1.389,1.849,3.873,5.811,3.873c1.571,0,2.674-0.187,2.674-0.187s0.029,3.548,0.029,4.927c0,1.592-2.186,2.039-2.186,2.805
			c0,0.301,0.724,0.331,1.305,0.331c1.149,0,3.538-0.942,3.538-2.596c0-1.313,0.021-5.728,0.021-6.503
			c0-1.689,0.922-2.225,0.922-2.225s0.113,9.016-0.22,10.227c-0.392,1.422-1.1,1.219-1.1,1.854c0,0.275,0.248,0.41,0.619,0.41
			c0.901,0,2.535-0.783,3.211-2.25c0.737-1.608,0.414-10.456,0.414-10.456l0.786-0.018c0,0,0.045,4.05,0.018,5.902
			c-0.026,1.916-0.16,4.341,0.998,5.484c0.54,0.534,1.938,1.353,2.706,1.353c0.313,0,0.522-0.138,0.522-0.487
			c0-0.7-1.352-1.275-1.352-3.171v-8.723c1.08,0,0.917,2.867,0.917,2.867l0.079,5.33c0,0-0.238,1.941,2.139,2.754
			c0.408,0.141,1.043,0.23,1.598,0.23c0.582,0,1.072-0.1,1.116-0.348c0.085-0.485-2.159-1.207-2.18-2.709
			c-0.013-0.918,0.042-1.453,0.042-5.439s-0.546-5.458-2.443-6.633c-0.645-0.371-2.165-0.507-3.797-0.507
			c-2.331,0-4.888,0.276-5.438,0.53c-0.851,0.635-1.873,1.836-2.013,3.228c-0.667,0.423-1.755,0.671-2.884,0.671
			c-0.681,0-1.378-0.09-2.006-0.285C11.099,32.879,10.172,28.861,7.204,28.861L7.204,28.861z"/>
	</g>
	<path fill="#FFFFFF" stroke="#020202" stroke-width="2.4722" d="M29.424,29.592c5.855-0.591,9.481-2.016,11.248-5.828
		c0.137,0.001,0.72-1.781,0.644-1.781c0.396-1.439,0.611-3.143,0.651-5.16c-0.01-5.468-2.672-7.402-3.184-8.31
		c0.754-4.141-0.127-6.025-0.535-6.671c-1.51-0.527-5.252,1.358-7.295,2.686c-3.33-0.958-10.374-0.865-13.015,0.247
		c-4.872-3.428-7.451-2.905-7.451-2.905s-1.666,2.936-0.44,7.23c-1.602,2.009-2.798,3.429-2.798,7.195
		c0.001,2.123,0.256,4.021,0.829,5.68c-0.07,0,0.768,1.776,0.792,1.776c1.832,3.268,5.362,5.301,11.32,5.864L29.424,29.592z"/>
</g>
</svg>
