<?xml version="1.0" encoding="utf-8"?>
<!-- Generator: Adobe Illustrator 14.0.0, SVG Export Plug-In . SVG Version: 6.00 Build 43363)  -->
<!DOCTYPE svg PUBLIC "-//W3C//DTD SVG 1.1//EN" "http://www.w3.org/Graphics/SVG/1.1/DTD/svg11.dtd">
<svg version="1.1" id="Layer_1" xmlns="http://www.w3.org/2000/svg" xmlns:xlink="http://www.w3.org/1999/xlink" x="0px" y="0px"
	 width="45px" height="45px" viewBox="0 0 45 45" enable-background="new 0 0 45 45" xml:space="preserve">
<g>
	<path fill="#FFFFFF" d="M28.536,28.569c-0.727-0.259-1.767-0.349-2.431-0.495c-0.382-0.084-0.939-0.298-1.125-0.518
		c-0.186-0.225-0.073-2.301-0.073-2.301s0.344-0.54,0.529-1.012c0.186-0.473,0.388-1.767,0.388-1.767s0.383,0,0.518-0.669
		c0.146-0.731,0.371-1.035,0.343-1.581c-0.027-0.506-0.292-0.534-0.32-0.534l0,0c0,0,0.275-0.765,0.315-2.385
		c0.045-1.918-1.424-3.808-4.18-3.808c-2.756,0-4.219,1.884-4.179,3.802c0.034,1.615,0.315,2.385,0.315,2.385l0,0
		c-0.028,0-0.292,0.028-0.321,0.534c-0.028,0.546,0.203,0.838,0.343,1.569c0.135,0.67,0.518,0.675,0.518,0.675
		s0.202,1.3,0.388,1.772c0.186,0.478,0.528,1.013,0.528,1.013s0.113,2.075-0.073,2.3c-0.186,0.226-0.743,0.434-1.125,0.518
		c-0.669,0.146-1.705,0.242-2.43,0.501S13.5,29.7,13.5,31.5h9h9C31.5,29.7,29.262,28.828,28.536,28.569z"/>
</g>
</svg>
