<?xml version="1.0" encoding="utf-8"?>
<!-- Generator: Adobe Illustrator 14.0.0, SVG Export Plug-In . SVG Version: 6.00 Build 43363)  -->
<!DOCTYPE svg PUBLIC "-//W3C//DTD SVG 1.1//EN" "http://www.w3.org/Graphics/SVG/1.1/DTD/svg11.dtd">
<svg version="1.1" id="Layer_1" xmlns="http://www.w3.org/2000/svg" xmlns:xlink="http://www.w3.org/1999/xlink" x="0px" y="0px"
	 width="15px" height="15px" viewBox="0 0 15 15" enable-background="new 0 0 15 15" xml:space="preserve">
<g>
	<path d="M1.758,2.944c0.002,0,3.081-0.771,5.741-0.771c2.659,0,5.74,0.771,5.743,0.771c1.134,0.261,1.84,1.392,1.578,2.525
		C14.629,6.3,13.972,6.9,13.188,7.06l-2.494-1.704c-0.048-0.269-0.042-0.551,0.023-0.834c0.038-0.165,0.095-0.321,0.167-0.467
		C9.944,3.955,8.741,3.862,7.5,3.862c-1.24,0-2.443,0.092-3.383,0.193c0.072,0.146,0.13,0.302,0.168,0.467
		c0.065,0.283,0.07,0.565,0.023,0.834L0.524,6.229c-0.16-0.221-0.279-0.477-0.344-0.76C-0.082,4.336,0.625,3.206,1.758,2.944z
		 M10.031,4.206c0.523,2.1,1.761,3.917,3.44,5.177v3.444H1.529V9.383c1.679-1.261,2.916-3.078,3.439-5.177
		c0.271-0.023,0.554-0.043,0.847-0.061v0.877h3.37V4.146C9.478,4.162,9.761,4.183,10.031,4.206z M10.102,8.49
		c0-1.436-1.164-2.601-2.602-2.601c-1.437,0-2.601,1.166-2.601,2.601c0,1.437,1.164,2.603,2.601,2.603
		C8.938,11.093,10.102,9.927,10.102,8.49z M9.185,8.49c0,0.931-0.754,1.686-1.685,1.686c-0.93,0-1.685-0.755-1.685-1.686
		c0-0.93,0.754-1.685,1.685-1.685C8.431,6.806,9.185,7.561,9.185,8.49z"/>
</g>
</svg>
