<?xml version="1.0" encoding="utf-8"?>
<!-- Generator: Adobe Illustrator 14.0.0, SVG Export Plug-In . SVG Version: 6.00 Build 43363)  -->
<!DOCTYPE svg PUBLIC "-//W3C//DTD SVG 1.1//EN" "http://www.w3.org/Graphics/SVG/1.1/DTD/svg11.dtd">
<svg version="1.1" id="Layer_1" xmlns="http://www.w3.org/2000/svg" xmlns:xlink="http://www.w3.org/1999/xlink" x="0px" y="0px"
	 width="120px" height="15px" viewBox="-52.5 0 120 15" enable-background="new -52.5 0 120 15" xml:space="preserve">
<path d="M13.79,5.677c0.763-0.763,0.996-1.854,0.703-2.818l-1.515,1.514L11.5,3.977L11.104,2.5l1.517-1.516
	c-0.966-0.293-2.056-0.06-2.819,0.704C9.038,2.452,8.925,3.423,9.295,4.314L7.718,5.888c-0.023-0.06-0.057-0.117-0.106-0.165
	L7.19,5.301c-0.182-0.181-0.474-0.181-0.655,0l-0.36,0.372L3.817,3.314L3.689,2.856L3.688,2.857
	c-0.013-0.096-0.056-0.188-0.13-0.262L1.493,1.093c-0.18-0.181-0.418-0.236-0.531-0.124l-0.52,0.52
	C0.331,1.602,0.386,1.839,0.566,2.02l1.502,2.064c0.074,0.073,0.167,0.117,0.262,0.13l0,0l0.452,0.082L5.16,6.674L4.775,7.062
	c-0.181,0.181-0.181,0.474,0,0.653l0.422,0.424c0.048,0.049,0.105,0.082,0.164,0.103l-3.587,3.583
	c-0.006,0.007-0.01,0.014-0.016,0.021l0,0c-0.521,0.521-0.521,1.363,0,1.885c0.519,0.519,1.358,0.52,1.878,0.004
	c0.01-0.008,0.019-0.014,0.028-0.021l3.249-3.263l3.351,3.354c0.448,0.445,1.172,0.445,1.62-0.002l1.384-1.383
	c0.445-0.447,0.445-1.173,0-1.619L9.91,7.443l1.254-1.259C12.055,6.553,13.025,6.441,13.79,5.677z M2.792,13.3
	c-0.227,0.087-0.479-0.028-0.564-0.258c-0.085-0.226,0.03-0.479,0.256-0.563c0.227-0.086,0.48,0.028,0.564,0.256
	C3.134,12.961,3.02,13.215,2.792,13.3z M5.675,5.917c-0.085,0.084-0.224,0.084-0.309,0l-4.317-4.32l0.14-0.14
	c0.057-0.059,0.179-0.03,0.273,0.063l1.814,1.525C3.314,3.084,3.336,3.13,3.343,3.18h0.001c0.007,0.063,0.033,0.122,0.075,0.173
	l2.254,2.253C5.76,5.693,5.76,5.832,5.675,5.917z M7.187,6.354L6.471,7.07L6.027,6.624l0.715-0.715c0.105-0.105,0.274-0.105,0.379,0
	l0.066,0.065C7.292,6.079,7.292,6.249,7.187,6.354z M12.867,11.27c0.203,0.205,0.203,0.539,0,0.744l-0.701,0.7L7.291,7.839
	C7.508,7.595,7.896,7.616,8.146,7.87l2.863,2.86c0.065,0.065,0.172,0.065,0.238,0c0.064-0.064,0.064-0.172,0-0.236L8.387,7.633
	C8.131,7.376,8.109,6.981,8.363,6.766L12.867,11.27z"/>
<line fill="none" stroke="#000000" x1="-42.5" y1="7.25" x2="-4.5" y2="7.25"/>
<line fill="none" stroke="#000000" x1="19.5" y1="7.25" x2="57.5" y2="7.25"/>
</svg>
